<?xml version="1.0" encoding="UTF-8"?>
<svg id="Calque_1" xmlns="http://www.w3.org/2000/svg" version="1.1" viewBox="0 0 396.7 303.6">
  <!-- Generator: Adobe Illustrator 29.8.1, SVG Export Plug-In . SVG Version: 2.1.1 Build 2)  -->
  <defs>
    <style>
      .st0 {
        fill: #d2974d;
      }

      .st1 {
        fill: #524d47;
      }

      .st2 {
        fill: #43708a;
      }
    </style>
  </defs>
  <g>
    <path class="st1" d="M105.8,11.7l15.3-8.2c8.8-4.7,19.4-4.7,28.2,0l22.6,12c16.6,8.8,36.4,8.8,53,0l22.6-12c8.8-4.7,19.4-4.7,28.2,0l15.3,8.2c9.6,5.1,9.6,18.8,0,23.9l-66.9,35.6c-16.1,8.6-35.4,8.6-51.4,0l-66.9-35.6c-9.6-5.1-9.6-18.8,0-23.9Z"/>
    <path class="st0" d="M140.9,183.6v-50.2c0-7.5-4.3-14.3-11.3-18.1l-40.6-21.6c-7-3.7-11.3-10.6-11.3-18.1v-20.6c0-10.2,10.9-16.7,19.9-11.9l66.1,35.2c17.9,9.5,29,28.1,29,48.3v96.5l-40.5-21.6c-7-3.7-11.3-10.6-11.3-18.1Z"/>
    <path class="st2" d="M255.9,183.6v-50.2c0-7.5,4.3-14.3,11.3-18.1l40.6-21.6c7-3.7,11.3-10.6,11.3-18.1v-20.6c0-10.2-10.9-16.7-19.9-11.9l-66.1,35.2c-17.9,9.5-29,28.1-29,48.3v96.5s40.5-21.6,40.5-21.6c7-3.7,11.3-10.6,11.3-18.1Z"/>
  </g>
  <g>
    <g>
      <polygon class="st1" points="38.4 254.6 0 254.6 0 261.6 15.7 261.6 15.7 302.9 22.7 302.9 22.7 261.6 38.4 261.6 38.4 254.6"/>
      <polygon class="st1" points="78.5 296.4 49.5 296.4 49.5 282.4 74.3 282.4 74.3 275.4 49.5 275.4 49.5 261.6 76.9 261.6 76.9 254.6 42.5 254.6 42.5 303.4 78.5 303.4 78.5 296.4"/>
      <path class="st1" d="M92.1,288.7h13.5c.4,0,.7,0,1.1,0l10.3,14.7h8.5l-11.7-16.8c7-3.8,10.8-12.3,7.9-20.6-2.4-7-9.4-11.4-16.8-11.4h-19.7v48.8h7v-14.7ZM105.6,261.6c6.1,0,11,5.5,9.9,11.8-.8,4.9-5.5,8.4-10.5,8.4h-12.9v-20.1h13.5Z"/>
      <path class="st1" d="M195.5,254.4h-5.2s-21.4,46-21.4,46l-9.6-13.8c7-3.8,10.8-12.3,7.9-20.6-2.4-7-9.4-11.4-16.8-11.4h-19.7v48.8h7v-14.7h13.5c.4,0,.7,0,1.1,0l10.3,14.7h5v.2c0,0,7.6,0,7.6,0l17.8-38.2,17.5,38.2h7.7l-22.6-49.1ZM137.5,261.6h12.9c5,0,9.7,3.4,10.5,8.4s-3.8,11.8-9.9,11.8h-13.5v-20.1Z"/>
    </g>
    <g>
      <path class="st1" d="M374.6,277.6c3.1-3.4,4.4-8.3,3-13.1-1.7-5.9-7.5-9.7-13.7-9.7h-23.2v48.8h25c7.1,0,13.7-4.9,14.8-12,.9-5.6-1.6-10.9-5.9-13.9ZM364.5,275h-16.8v-13.3h16.8c3.7,0,6.7,3,6.7,6.7s-3,6.7-6.7,6.7ZM347.7,282h18.8c4,0,7.3,3.3,7.3,7.3s-3.3,7.3-7.3,7.3h-18.8v-14.5Z"/>
      <polygon class="st1" points="310.2 254.5 287.4 303.5 295.1 303.5 312.8 265.5 330.3 303.5 337.9 303.5 315.4 254.5 310.2 254.5"/>
      <path class="st1" d="M396.7,260.7c0,3.4-2.6,6-6.1,6s-6.1-2.6-6.1-6,2.7-6,6.1-6,6.1,2.6,6.1,6ZM386,260.7c0,2.6,2,4.8,4.6,4.8s4.5-2.1,4.5-4.7-1.9-4.8-4.6-4.8-4.6,2.1-4.6,4.8ZM389.7,263.8h-1.4v-6c.5-.1,1.3-.2,2.3-.2s1.6.2,2.1.4c.3.3.6.7.6,1.3s-.5,1.2-1.2,1.4h0c.6.3.9.7,1.1,1.5.2.9.3,1.3.4,1.5h-1.5c-.2-.2-.3-.8-.5-1.5-.1-.7-.5-.9-1.2-.9h-.7v2.4ZM389.7,260.4h.7c.8,0,1.4-.3,1.4-.9s-.4-.9-1.3-.9-.6,0-.8,0v1.7Z"/>
      <path class="st1" d="M236.9,254.7c-3.2.1-6.2.9-8.9,2.5-4.4,2.6-7.2,7.1-7.2,11.6,0,9.8,9.5,12.1,16.4,13.7,8.6,2,11.5,3.4,11.5,7.5s-1.2,4.2-3.6,5.4c-5.4,2.7-14.2,1.4-20-3l-2.8-2.1-4.1,5.5,2.8,2.1c4.9,3.6,11.3,5.7,17.5,5.7s7-.7,9.8-2.1c4.7-2.4,7.4-6.6,7.4-11.5,0-10.2-9.7-12.5-16.8-14.2-8.3-2-11.1-3.3-11.1-7s1.5-4.3,3.8-5.6c1.6-.9,3.4-1.4,5.4-1.5h34.5v41.4h7v-41.4h15.7v-7h-57.2Z"/>
    </g>
  </g>
</svg>