<?xml version="1.0" encoding="iso-8859-1"?>
<!-- Generator: Adobe Illustrator 27.9.0, SVG Export Plug-In . SVG Version: 6.00 Build 0)  -->
<svg version="1.1" id="Calque_2" xmlns="http://www.w3.org/2000/svg" xmlns:xlink="http://www.w3.org/1999/xlink" x="0px" y="0px"
	 viewBox="0 0 1000 237.699" style="enable-background:new 0 0 1000 237.699;" xml:space="preserve">
<path style="fill:#004A7C;" d="M274.503,121.374v-6.095c0-29.676,9.826-50.869,45.93-50.869c27.126,0,39.323,11.375,42.373,36.283
	l-23.048,3.395c-0.853-13.055-6.27-20.86-19.845-20.86c-18.459,0-23.884,12.04-23.884,32.052v6.095
	c0,21.692,5.587,32.039,24.234,32.039c14.587,0,18.988-6.27,20.69-22.212l22.873,2.542c-4.069,23.564-15.26,38.313-45.256,38.313
	C284.837,172.056,274.503,150.701,274.503,121.374"/>
<path style="fill:#004A7C;" d="M372.377,121.374v-6.095c0-29.676,9.835-50.869,45.934-50.869c27.121,0,39.323,11.375,42.382,36.283
	l-23.061,3.395c-0.844-13.055-6.265-20.86-19.832-20.86c-18.472,0-23.901,12.04-23.901,32.052v6.095
	c0,21.692,5.596,32.039,24.247,32.039c14.573,0,18.979-6.27,20.69-22.212l22.864,2.542c-4.064,23.564-15.256,38.313-45.256,38.313
	C382.724,172.056,372.377,150.701,372.377,121.374"/>
<rect x="472.751" y="65.266" style="fill:#004A7C;" width="21.364" height="106.118"/>
<path style="fill:#004A7C;" d="M0,118.845c0,65.548,53.319,118.854,118.85,118.854c31.208,0,55.8-11.756,73.073-25.222
	l-25.078-28.001c-13.786,9.936-29.899,15.54-47.995,15.54c-44.757,0-81.171-36.405-81.171-81.171
	c0-44.735,36.414-81.167,81.171-81.167c11.581,0,22.571,2.476,32.538,6.878l14.941-34.629C151.777,3.579,135.724,0,118.85,0
	C53.319,0,0,53.319,0,118.845"/>
<path style="fill:#004A7C;" d="M55.494,118.845c0,34.94,28.416,63.347,63.356,63.347c13.383,0,26.902-4.769,35.591-11.283
	c0,0-23.538-26.251-25.594-28.495c-2.109,1.028-6.388,2.083-9.997,2.083c-14.132,0-25.66-11.493-25.66-25.651
	c0-14.14,11.603-26.01,25.739-26.01c3.662,0,7.271,0.849,10.439,2.244l14.875-34.126c-7.56-3.194-15.952-5.443-25.393-5.443
	C83.91,55.511,55.494,83.91,55.494,118.845"/>
<path style="fill:#F11F52;" d="M166.099,94.21c3.246,6.445,6.094,15.256,6.094,24.636c0,11.874-5.014,24.741-11.69,33.312
	l25.432,28.014c14.167-15.155,23.927-37.166,23.927-61.326c0-14.293-3.574-28.696-9.568-40.579L166.099,94.21z"/>
<path style="fill:#F11F52;" d="M155.535,80.17l64.528-30.245c-9.533-14.018-22.536-26.811-35.823-34.848L155.333,79.96
	L155.535,80.17z"/>
<polygon style="fill:#004A7C;" points="535.465,79.406 597.906,79.406 597.906,95.716 553.971,95.716 553.971,115.251 
	593.492,115.251 593.492,131.575 553.971,131.575 553.971,171.384 535.465,171.384 "/>
<path style="fill:#004A7C;" d="M641.801,135.233h-17.925v36.151h-18.507V79.407h40.107c16.315,0,31.886,4.712,31.886,27.48
	c0,14.394-7.643,22.186-17.041,25.708l18.507,38.79h-19.828L641.801,135.233z M643.131,119.973c10.426,0,15.702-3.684,15.702-12.793
	c0-8.518-4.983-12.487-15.702-12.487h-19.255v25.279H643.131z"/>
<path style="fill:#004A7C;" d="M714.167,78.679h18.796l31.304,92.704h-18.664l-6.313-18.515h-31.886l-6.169,18.515h-18.065
	L714.167,78.679z M712.391,138.036h21.893l-11.021-32.468L712.391,138.036z"/>
<polygon style="fill:#004A7C;" points="771.502,79.406 793.684,79.406 825.417,136.562 825.417,79.406 843.35,79.406 
	843.35,171.384 825.123,171.384 789.283,107.035 789.283,171.384 771.502,171.384 "/>
<path style="fill:#004A7C;" d="M851.992,128.036v-5.289c0-25.704,8.527-44.07,39.813-44.07c23.516,0,34.086,9.835,36.725,31.435
	l-19.972,2.936c-0.744-11.301-5.438-18.069-17.185-18.069c-16.013,0-20.72,10.426-20.72,27.769v5.289
	c0,18.826,4.843,27.778,21.022,27.778c12.627,0,16.446-5.43,17.912-19.25l19.837,2.201c-3.531,20.419-13.23,33.203-39.236,33.203
	C860.944,171.967,851.992,153.46,851.992,128.036"/>
<polygon style="fill:#004A7C;" points="937.567,79.406 1000,79.406 1000,95.716 956.074,95.716 956.074,113.505 995.577,113.505 
	995.577,129.509 956.074,129.509 956.074,155.222 1000,155.222 1000,171.384 937.567,171.384 "/>
</svg>
